<svg height="335.882805" viewBox="0 0 7881.597 8885.69" width="297.722892" xmlns="http://www.w3.org/2000/svg"><path d="m1526 8575.626c-67-18-107-40-151-84-74-74-89-179-38-272 52-97 142-145 274-145 94 0 163 24 228 79 81 68 103 196 49 287-65 111-224 170-362 135zm209-83c22-11 54-37 70-58 45.17-64.896 43.492-154.63 2-210-89-118-314-114-393 5-68 103-27 218 99 274 48 22 171 16 222-11zm362 84c-35.96-10.142-117.768-92.58-117.768-92.58l54.449-43.584c46.053 57.958 129.593 114.558 192.319 53.164 48-47 29-78-98-164-86-58-109-85-110-135-2-71 57-121 143-121 46 0 65 6 99 28 25.212 16.808 58.19 54.354 58.19 54.354l-50.51 41.459s-13.486-10.48-21.68-17.813c-49-45-110-54-140-21-30 34-13 66 66 116 98 63 136 99 149 139 19 58-12 120-75 153-32 16-106.96 21.858-149 10zm-967.375-8.5-227.125-212-1.5 212.5h-70l.625-482.5 133.375.5c95 2 138 7 163 19 65 31 91 109 58 173-18 35-81 70-125 70-18 0-36.875 1.125-36.875 1.125l178.25 218.375zm-38.625-294.5c52-27 48-95-6-115-14-6-61-10-105-10h-79v140h80c53 0 91-5 110-15zm1850 294v-486.07l340.303 1.187c1.934 21.672-1.334 44.22.697 65.883l-267.58.884 1.58 124.116 265.884 1.581-.884 66.839-265 1.58v160l265 1.581-.51 64.42zm945.125 4.938-.125-488.938h60l.5 489.188zm276.34-.17-1.465-422.768-124.237-1.292.12-68.243 322.27-.128.509 67.052-128.662 2.611v423.188zm420.303-1.232-2.768-237.536-173.625-253.968 73.945.174 140.68 187.794 133.92-187.454 72.58-.92-166.5 254.385-.658 237.091zm976.452 3.955 270.868-482.144 275.823 481.997-67.122.68-85.896-152.024-238.116 2.349-86.74 149.35zm348.673-218.49-75.419-136.536-79 137.187zm-5566.313-273.001 132.42.5c151 3 192.334 6.787 223 79.5 42.237 100.152-23 180-191 187l-90 4-1.58 214h-73.42zm261.42 185c94-105-53.27-122.374-106-120.625l-86 .625v140h84c68 0 90.924-.925 108-20zm4742-375c-4-10-19-15-43-15-56 0-61-11-61-132 0-89-3-108-15-108-8 0-15 8-15 18 0 26-20 42-52 42-26 0-28-3-28-40v-40h110v-41c0-53 15-79 45-79 26 0 32 13 37 80 1.474 17.198 7.125 36.938 7.125 36.938l100.875 1.41v42.652c0 37-2 39-31 39-25 0-43.607-16.606-52.607-40.606-6-16-6.393-19.394-13.393-19.394-10 0-13 27-13 110 0 69 4 110 10 110s13-7 16-15c4-9 19-15 40-15 41 0 67 38 44 65-16 20-79 20-86 0zm-2797-22c-4-3-7-51-7-107 0-60-4-96-9-90-5 5-11 18-13 29-4 27-48 33-65 9-7-10-13-28-13-41 0-21 4-23 50-23h50v-35c0-19 5-45 11-59 37-80 217-68 240 15 4 13 7 81 8 150 1 138-8.496 169.746-50 157-20.646-6.34-19.749-17.453-20.25-25.5l-8.75-140.5c-4-147-7-165-24-178-26-18-32-18-56 6-18 18-20 33-20 168 0 102-4 152-12 160-13 13-50 16-61 5zm329-15c-13-18-16-53-16-178 0-164 4-180 46-180 27 0 34 17 34 82v50l27-18c30-19 109-22 141-5s43 61 40 160c-2 77-6 96-20 105-13 8-23 8-35 0-15-9-18-29-21-119-1-60-8-115-14-122-17-21-54-15-87 13-24 19-31 34-31 60 0 32 2 34 34 34 42 0 66 29 66 77 0 43-30 63-97 63-42 0-55-4-67-22zm99-49c0-34-4-44-17-47-15-3-18 4-18 41 0 24 3 47 7 51 16 16 28-4 28-45zm247 59c-27-27-9-90 44-155l35-43h-28c-40 0-53-17-53-70 0-64 20-79 116-93 0 0 48.4-12.796 72.25-3.5 10.817 4.217 25.75 19.5 25.75 19.5 17 21 30 27 59 27 35 0 37 1 37 34 0 52-49 65-74 19-13-24-15-25-16-7 0 11-11 36-25 55l-26 34 37 6c20 3 40 12 45 20s8 48 7 89c-3 70-5 75-26 78-39 6-52-14-52-83 0-80-18-100-56-64-34 32-47 56-53 104-5 33-10 40-31 43-14 2-31-3-38-10zm139-278c9-31 9-43-1-55-16-19-25-19-44 1-16 15-23 94-10 107 14 14 44-15 55-53zm431 278c-8-8-12-63-12-180 0-135-3-168-14-168-8 0-15 16-19 41-3 23-11 46-19 50-17 11-99 11-116 0-15-9-19.442-94.629-5.442-108.629 5-5 127.674-4.348 127.674-4.348 121.472-1.642 121.214-3.547 124.373 4.256 4.082 10.085 1.163 174.954 1.163 174.954 3 178-3.768 202.767-38.768 202.767-9 0-22-5-29-12zm-112-308c0-22-4-40-10-40-5 0-10 18-10 40s5 40 10 40c6 0 10-18 10-40zm401 301c-6-11-11-49-11-86v-66l-66 7c-80 8-84 5-84-88 0-56 4-71 24-95 23-27 28-28 130-31l106-4v29c0 33-8 47-33 56-27 10-57-10-57-38 0-19-5-25-23-25-39 0-59 23-64 73-3 25-3 58 1 72 7 26 7 26 77 19l70-7-3 99s-2.709 52.64-5.652 83.09c-.87 9.014-14.14 17.733-24.348 18.91-13.483 1.555-30-3-37-17zm346 13c-4-4-7-24-7-45v-38l58-3 57-3 3-132c2-110 0-133-12-133-8 0-19 14-25 30-8 24-16 30-40 30-29 0-31-2-31-40v-40h310v40c0 37-2 40-28 40-32 0-52-16-52-42 0-11-7-18-20-18-19 0-20 7-20 124 0 123 0 125-26 145-15 12-39 21-53 21-22 0-29 6-36 33-8 26-16 33-40 35-17 2-34 0-38-4zm397-319c26-39 74-55 166-55 79 0 80 0 80 26 0 38-18 64-43 64-29 0-47-18-47-47 0-19-5-23-28-23-59 0-67 16-70 152-3 148 5 171 61 176 34 3 37 1 37-23 0-31 22-42 59-29 29 11 39 38 21 59-10 12-38 15-122 15h-109c-29.695 0-23.906-280.617-5-315zm-4525-207 2-431 92.303-.292c109 6 130.919 29.938 163.697 81.292 13.635 21.362 14.147 53.76 2 76-25.593 46.86-52 76-137 83l-72 6 .12 185.262zm192-264c23-21 25-61 2-86-12-14-31-18-80-18h-63v58c0 32 1.644 64.73 1.644 64.73s119.356-.73 139.356-18.73zm111.458 266.339 202.898-424.61 203.241 424.534-49.736.235-73.861-135.497-167-3-67.004 138.325-48.538.015zm257.542-194.339-56-116-54 116.356zm681.854 192.787s-.854-113.787.146-223.787l.303-204.494 44.495.596c22-2 67.202-.102 102.202 3.898 52 6 70 12 93 35 23 24 32.494 37.9 32.494 80.9 0 45-8.494 55.1-34.494 79.1-16 15-45 31-64 34l-35 7c125.574 178.5 0 0 133.392 188.022l-55.114-.232-160.267-190.587-1.859 190.678-55.298-.095zm200.146-268.787c22-28 23-58 1-82-12-14-31-18-80-18h-63v133l62-6c48-4 67-11 80-27zm213-104c-28.49.243-56.97-.423-85.457-.345l-.543-56.655 236.636.28.254 56.91-97.797.361 1.907 373.45-51.907-.636zm207.458-50.364 57.627-.636-.085 425-58.114-.039zm477.542 209.364v-215h53c113 0 171.42 35 171.42 108 2.713 34.861-31.757 81.58-31.757 81.58 43.84 53.556 79.38 105.78 51.337 167.42-27 54-70 73-166 73h-78zm180 140c12-11 20-31 20-50 0-45-29-67-95-73l-55-4v154l55-4c34-3 62-12 75-23zm-28-202c10-9 18-26 18-39 0-35-26-54-76-54h-44v123l42-7c23-4 50-14 60-23zm638.58-152.419 51.42.17c26-.282 80 2.25 119 8.25 115 16 176 78 186 191 7 73-13 133-60 177-42 40-91 53-205 53h-92zm237.42 353.42c47-27 76-93 68-152-7-54-28-87-76-119-27-19-48.772-29.91-107.768-29.188l-72.232.884v323.884l78-.58c52-3 89-11 110-24zm211 75.767v-429.7l51.591-.047.409 179.979h199l-.261-179.832 50.261-.168v430h-50v-200h-200v200zm2441.25-428.768 291.75 298-2.687-300.305 50.687.305 1 431-282.25-294 .25 294h-59zm-2767.25-54c-20-21-50-61-184-237-130-172-266-294-519-465-155-104-387-232-610-334-344-158-517-297-681-546-77-115-190-344-229-461-31-96-63-262-81-424-18-164-57-333-104-454-60-152-75-202-75-258 0-58 23-78 90-78 139 0 291 191 415 520 131 346 161 415 248 560 54 90 169 218 248 276 60 44 275 154 301 154 19 0 19-2 6-22-8-13-22-45-32-73-31-84-84-174-167-281-73-94-148-219-163-271-11-34 25-63 75-63 89 0 203 45 390 153 146 84 329 232 565 455 447 424 537 571 589 967 24 177 24 480 1 635-16 107-49 256-58 266-3 2-14-6-25-19zm427 1c0-12-7-48-15-78-46-170-55-508-20-760 41-290 105-454 244-627 87-108 378-398 511-509 149-125 377-290 493-357 113-66 252-104 304-82 90 38 68 134-69 295-34 41-73 90-86 108-28 40-99 180-118 234l-14 40 33-7c91-20 258-125 357-225 138-140 237-318 369-668 92-243 159-362 254-455 115-112 242-129 268-35 12 45 0 96-51 223-70 176-97 287-150 613-29 176-60 290-116 420-121 285-277 499-468 642-119 89-180 123-426 237-399 184-744 405-940 602-47 47-142 158-210 245-69 88-131.884 158.79-137.884 161.79-8 2-12.116-3.79-12.116-17.79zm-2917.542 476.339 202.898-424.61 203.241 424.534-49.736.235-73.861-135.497-167-3-67.004 138.325-48.538.015zm257.542-194.339-56-116-54 116.356zm1635.458 200.338 202.898-424.61 203.241 424.534-49.736.235-73.861-135.497-167-3-67.004 138.325-48.538.015zm257.542-194.339-56-116-54 116.356zm1039.458 188.34 202.898-424.61 203.241 424.534-49.736.235-73.861-135.497-167-3-67.004 138.325-48.538.015zm257.542-194.339-56-116-54 116.356zm191.458 204.339 202.898-424.61 203.241 424.534-49.736.235-73.861-135.497-167-3-67.004 138.325-48.538.015zm257.542-194.339-56-116-54 116.356zm1773.458 186.984 202.898-424.61 203.241 424.534-49.736.234-73.861-135.496-167-3-67.004 138.324-48.538.015zm257.542-194.34-56-116-54 116.356zm184.458 194.34 202.898-424.61 203.241 424.534-49.736.234-73.861-135.496-167-3-67.004 138.324-48.538.015zm257.542-194.34-56-116-54 116.356zm-5129.542-227.008 57.627-.636-.085 425-58.114-.039zm3722.542-.636 57.627-.635-.085 425-58.114-.04.572-424.324zm137.458.636 57.627-.636-.085 425-58.114-.039zm-544.458 424.133v-429.7l51.591-.047.409 179.978h199l-.261-179.832 50.261-.168v430h-50v-200h-200v200zm-447.42-423.885 51.42.17c26-.282 80 2.25 119 8.25 115 16 176 78 186 191 7 73-13 133-60 177-42 40-91 53-205 53h-92zm237.42 353.42c47-27 76-93 68-152-7-54-28-87-76-119-27-19-48.772-29.91-107.768-29.187l-72.232.883v323.884l78-.58c52-3 89-11 110-24zm-2958.42 805.696 132.42.5c151 3 192.334 6.787 223 79.5 42.237 100.152-23 180-191 187l-90 4-1.58 214h-73.42zm261.42 185c94-105-53.27-122.374-106-120.625l-86 .625v140h84c68 0 90.924-.925 108-20zm2459.161-184 132.42.5c151 3 192.334 6.787 223 79.5 42.237 100.152-23 180-191 187l-90 4-1.581 214h-73.42zm261.42 185c94-105-53.27-122.374-106-120.625l-86 .625v140h84c68 0 90.923-.925 108-20zm-1740.11 301.103-227.125-212-1.5 212.5h-70l.625-482.5 133.375.5c95 2 138 7 163 19 65 31 91 109 58 173-18 35-81 70-125 70-18 0-36.875 1.125-36.875 1.125l178.25 218.375zm-38.625-294.5c52-27 48-95-6-115-14-6-61-10-105-10h-79v140h80c53 0 91-5 110-15zm2855.779 293.897-227.125-212-1.5 212.5h-70l.625-482.5 133.375.5c95 2 138 7 163 19 65 31 91 109 58 173-18 35-81 70-125 70-18 0-36.875 1.125-36.875 1.125l178.25 218.375zm-38.625-294.5c52-27 48-95-6-115-14-6-61-10-105-10h-79v140h80c53 0 91-5 110-15zm354.197 296.768-1.464-422.768-124.237-1.292.12-68.243 322.27-.128.509 67.052-128.662 2.611v423.188zm438.229-3.334-2.768-237.535-173.625-253.969 73.945.174 140.68 187.795 133.92-187.455 72.58-.92-166.5 254.386-.658 237.09z" fill="#020202"/><g fill="#d42173"><path d="m4475 4545.626s1-133 36-522c43-477 19-620-113-680-59-28-159-45-261-45-53 0-67-3-63-13 3-8 11-49 18-91 11-66 4.5-81.25 26.5-92.25 14-7 125.5-41.75 232.5-78.75 350-120 451-171 530-266 60-72 96-142 156-298 25-64 52-132 61-151l16-35 9 30c19 66 32 440 20 577-30 349-187 849-394 1251-87 168-274 414-274 414zm1161-463c-161-127-257-191-395-260-63-31-132-68-154-81-38-24-38-26-33-73 6-48 81-255 96-265 23-14 282 201 382 316 133 154 187 244 225 377 9 32 21 70 21 70s-30 5-142-84z"/><path d="m4416 2874.626c-88-41-138-120-137-216 1-98 56-185 137-216 68-26 174-15 228 22 107 74 130 255 46 357-62 76-178 98-274 53z"/></g><g fill="#2f9af6"><path d="m2877 4118.626c-156-306-304-740-362-1065-62.5-229.5 3-809.25 3-809.25s23 9.25 78 164.25c81 232 158 353 263 418 74 45 212 105 399 170 251.582 88 283.377 97 279 152 6 25 13 64 16 87l8.188 40.063-109.188 7.937c-260 16-329 71-353 279-13 104-5 292 27 680 9 104 9.893 293.099 9.893 293.099s-197.893-297.099-258.893-417.099zm-1036 22c0-25 45-154 76-215 77-155 293-381 495-517 48-34 63-39 70-29 19 29 70 172 85 236s14 68-3 81c-10 7-97 53-193 102-138 71-208 114-330 206-184 138-200 149-200 136z"/><path d="m3031 2863.626c-87-40-130-111-130-217 0-83 20-137 66-180 85-80 244-78 325 3 106 106 84 294-44 373-58 36-161 46-217 21z"/></g><g fill="#f9db12"><path d="m3835.75 4722.376s-51.75-219.75-84.75-403.75-86-470-116-635c-31-165-60-324-65-352-16-93-27-155-53-288-13-71-54-292-91-490-36-198-102-551-146-784-43-233-72.125-439.375-72.125-439.375l32.125 83.375c35 108 199 564 251 695 83 213 200 365 313 407 107 39 247-20 326-138 66-98 79-137 125-373 25-126 62-252.5 62-252.5s4 43.5-37 296.5c-16 102-36 228-44 280-26 159-36 223-46 275-5 28-20 124-34 215-15 91-38 228-51 305-14 77-27 158-30 180-2 22-22 150-44 285-92 571-146 873-166 1000zm2402.25-1860.75c-23-22-1-44 96-99 56-32 158-90 227-130l125-72 17 21c10 12 16 27 15 32-2 6-41 31-88 56-46 25-148 80-226 122-143 78-154 82-166 70zm-4927-324c-69-38-126-73-128-78s4-15 12-24c14-13 29-8 142 53 69 37 131 73 137 79 12 12-7 41-27 40-6 0-67-31-136-70z"/><path d="m3753 2377.626c-80-40-142-140-142-229 0-20 7-57 15-81 69-203 352-230 460-44 72 122 19 293-110 354-62 29-164 29-223 0zm2488-246-30-28 246-240c136-132 252-241 258-243 7-1 25 11 41 29l30 31-46 41c-26 23-141 131-257 240l-211 197zm-4937-434c-109-110-199-205-200-212-2-7 9-20 23-31 31-22 10-40 255 215l178 186-29 21-29 21zm4385 177c-23-17-23-35 1-60 10-12 69-88 131-171 170-227 155-211 196-191 20 9 34 20 32 24-4 10-275 338-313 379-26 29-32 31-47 19zm-3623-317c-205-234-193-216-166-242l21-22 162 169c89 93 171 180 181 193 19 24 19 24-4 49-12 13-27 24-33 24s-78-77-161-171zm3120 81c-9-14 116-311 133-318 7-2 18 0 24 6 7 7-3 40-34 109-25 54-56 124-69 155-23 55-40 70-54 48zm-2473-118c-11-15-45-77-78-139-45-85-56-115-47-124 17-17 27-6 78 89 26 48 61 110 77 138 28 50 28 52 8 57-14 4-25-3-38-21zm1645-189c-8-7-10-637-2-644 2-3 21-3 41-1l36 4-6 247c-4 135-9 281-12 324-6 71-8 77-28 77-13 0-26-3-29-7zm-777-403c0-136 3-170 13-170 11 0 15 31 20 128 11 203 10 212-13 212-19 0-20-7-20-170zm1395-37c-11-2-25-6-31-8s16-111 61-291l71-289 42-3c23-2 42 1 42 6s-22 99-49 208c-27 110-57 233-67 274-18 80-30 111-42 109-4-1-16-3-27-6zm-2003-120c-80-213-132-355-132-364 0-5 18-9 40-9 27 0 42 5 48 18 6 9 40 113 76 231 68 220 69 230 25 231-11 0-28-32-57-107z"/></g></svg>